<svg width="62" height="62" viewBox="0 0 62 62" fill="none" xmlns="http://www.w3.org/2000/svg">
<path fill-rule="evenodd" clip-rule="evenodd" d="M31 10.9583C19.9308 10.9583 10.9583 19.9308 10.9583 31C10.9583 42.0692 19.9308 51.0417 31 51.0417C42.0692 51.0417 51.0417 42.0692 51.0417 31C51.0417 19.9308 42.0692 10.9583 31 10.9583ZM7.875 31C7.875 18.2288 18.2288 7.875 31 7.875C43.7712 7.875 54.125 18.2288 54.125 31C54.125 43.7712 43.7712 54.125 31 54.125C18.2288 54.125 7.875 43.7712 7.875 31Z" fill="#383838"/>
<path d="M27.9167 35.6251C27.9167 34.8073 27.5918 34.0231 27.0136 33.4448C26.4353 32.8666 25.6511 32.5417 24.8333 32.5417C24.0156 32.5417 23.2313 32.8666 22.6531 33.4448C22.0749 34.0231 21.75 34.8073 21.75 35.6251C21.75 36.4428 22.0749 37.2271 22.6531 37.8053C23.2313 38.3836 24.0156 38.7084 24.8333 38.7084C25.6511 38.7084 26.4353 38.3836 27.0136 37.8053C27.5918 37.2271 27.9167 36.4428 27.9167 35.6251Z" fill="#383838"/>
<path d="M32.5417 23.2918C32.5417 22.4741 32.2168 21.6898 31.6386 21.1116C31.0603 20.5333 30.2761 20.2085 29.4583 20.2085C28.6406 20.2085 27.8563 20.5333 27.2781 21.1116C26.6999 21.6898 26.375 22.4741 26.375 23.2918C26.375 24.1096 26.6999 24.8938 27.2781 25.4721C27.8563 26.0503 28.6406 26.3752 29.4583 26.3752C30.2761 26.3752 31.0603 26.0503 31.6386 25.4721C32.2168 24.8938 32.5417 24.1096 32.5417 23.2918Z" fill="#383838"/>
<path d="M41.7917 34.0833C41.7917 33.2656 41.4668 32.4813 40.8886 31.9031C40.3103 31.3249 39.5261 31 38.7083 31C37.8906 31 37.1063 31.3249 36.5281 31.9031C35.9499 32.4813 35.625 33.2656 35.625 34.0833C35.625 34.9011 35.9499 35.6853 36.5281 36.2636C37.1063 36.8418 37.8906 37.1667 38.7083 37.1667C39.5261 37.1667 40.3103 36.8418 40.8886 36.2636C41.4668 35.6853 41.7917 34.9011 41.7917 34.0833Z" fill="#383838"/>
<path fill-rule="evenodd" clip-rule="evenodd" d="M26.375 1.70841C26.375 1.29954 26.5374 0.907411 26.8265 0.618292C27.1157 0.329173 27.5078 0.166748 27.9167 0.166748H34.0833C34.4922 0.166748 34.8843 0.329173 35.1735 0.618292C35.4626 0.907411 35.625 1.29954 35.625 1.70841C35.625 2.11729 35.4626 2.50942 35.1735 2.79854C34.8843 3.08766 34.4922 3.25008 34.0833 3.25008H32.5417V12.5001C32.5417 12.909 32.3792 13.3011 32.0901 13.5902C31.801 13.8793 31.4089 14.0417 31 14.0417C30.5911 14.0417 30.199 13.8793 29.9099 13.5902C29.6208 13.3011 29.4583 12.909 29.4583 12.5001V3.25008H27.9167C27.5078 3.25008 27.1157 3.08766 26.8265 2.79854C26.5374 2.50942 26.375 2.11729 26.375 1.70841Z" fill="#383838"/>
<path fill-rule="evenodd" clip-rule="evenodd" d="M31 47.9585C31.4089 47.9585 31.801 48.1209 32.0901 48.41C32.3792 48.6992 32.5417 49.0913 32.5417 49.5002V58.7502H34.0833C34.4922 58.7502 34.8843 58.9126 35.1735 59.2017C35.4626 59.4908 35.625 59.883 35.625 60.2918C35.625 60.7007 35.4626 61.0928 35.1735 61.382C34.8843 61.6711 34.4922 61.8335 34.0833 61.8335H27.9167C27.5078 61.8335 27.1157 61.6711 26.8265 61.382C26.5374 61.0928 26.375 60.7007 26.375 60.2918C26.375 59.883 26.5374 59.4908 26.8265 59.2017C27.1157 58.9126 27.5078 58.7502 27.9167 58.7502H29.4583V49.5002C29.4583 49.0913 29.6208 48.6992 29.9099 48.41C30.199 48.1209 30.5911 47.9585 31 47.9585Z" fill="#383838"/>
<path fill-rule="evenodd" clip-rule="evenodd" d="M13.5576 54.9822C13.2685 55.2713 12.8764 55.4336 12.4676 55.4336C12.0588 55.4336 11.6668 55.2713 11.3777 54.9822L7.01783 50.6224C6.87059 50.4802 6.75314 50.3101 6.67234 50.122C6.59155 49.9339 6.54902 49.7316 6.54724 49.5269C6.54546 49.3222 6.58447 49.1192 6.66198 48.9297C6.7395 48.7403 6.85397 48.5681 6.99873 48.4234C7.14348 48.2786 7.31561 48.1642 7.50507 48.0866C7.69454 48.0091 7.89754 47.9701 8.10224 47.9719C8.30694 47.9737 8.50924 48.0162 8.69733 48.097C8.88542 48.1778 9.05554 48.2952 9.19775 48.4425L10.2877 49.5325L16.829 42.9912C16.9712 42.8439 17.1413 42.7265 17.3294 42.6457C17.5175 42.5649 17.7198 42.5223 17.9245 42.5206C18.1292 42.5188 18.3322 42.5578 18.5217 42.6353C18.7111 42.7128 18.8833 42.8273 19.028 42.9721C19.1728 43.1168 19.2873 43.2889 19.3648 43.4784C19.4423 43.6679 19.4813 43.8709 19.4795 44.0756C19.4777 44.2803 19.4352 44.4826 19.3544 44.6707C19.2736 44.8587 19.1562 45.0289 19.0089 45.1711L12.4676 51.7124L13.5576 52.8023C13.8466 53.0914 14.009 53.4835 14.009 53.8923C14.009 54.3011 13.8466 54.6931 13.5576 54.9822Z" fill="#383838"/>
<path fill-rule="evenodd" clip-rule="evenodd" d="M42.9911 19.0091C42.8478 18.8659 42.734 18.6959 42.6565 18.5087C42.5789 18.3216 42.5389 18.121 42.5389 17.9184C42.5389 17.7158 42.5789 17.5152 42.6565 17.328C42.734 17.1408 42.8478 16.9708 42.9911 16.8276L49.5324 10.2879L48.4424 9.19793C48.2952 9.05572 48.1777 8.8856 48.0969 8.69752C48.0161 8.50943 47.9736 8.30713 47.9718 8.10243C47.9701 7.89772 48.0091 7.69472 48.0866 7.50525C48.1641 7.31579 48.2786 7.14366 48.4233 6.99891C48.5681 6.85416 48.7402 6.73968 48.9297 6.66217C49.1191 6.58465 49.3221 6.54564 49.5268 6.54742C49.7315 6.5492 49.9338 6.59173 50.1219 6.67253C50.31 6.75332 50.4801 6.87077 50.6223 7.01802L54.9822 11.3779C55.263 11.6686 55.4184 12.058 55.4149 12.4623C55.4114 12.8665 55.2492 13.2531 54.9634 13.539C54.6776 13.8248 54.2909 13.987 53.8867 13.9905C53.4825 13.994 53.093 13.8386 52.8023 13.5578L51.7123 12.4678L45.171 19.0091C44.8819 19.2981 44.4898 19.4605 44.0811 19.4605C43.6723 19.4605 43.2802 19.2981 42.9911 19.0091Z" fill="#383838"/>
<path fill-rule="evenodd" clip-rule="evenodd" d="M7.01785 13.5578C6.72883 13.2687 6.56647 12.8766 6.56647 12.4678C6.56647 12.059 6.72883 11.667 7.01785 11.3779L11.3777 7.01802C11.5199 6.87077 11.69 6.75332 11.8781 6.67253C12.0662 6.59173 12.2685 6.5492 12.4732 6.54742C12.6779 6.54564 12.8809 6.58465 13.0704 6.66217C13.2598 6.73968 13.432 6.85416 13.5767 6.99891C13.7215 7.14366 13.8359 7.31579 13.9134 7.50525C13.991 7.69472 14.03 7.89772 14.0282 8.10243C14.0264 8.30713 13.9839 8.50943 13.9031 8.69752C13.8223 8.8856 13.7048 9.05572 13.5576 9.19793L12.4676 10.2879L19.0089 16.8292C19.2898 17.1199 19.4451 17.5094 19.4416 17.9136C19.4381 18.3178 19.276 18.7045 18.9901 18.9903C18.7043 19.2762 18.3176 19.4383 17.9134 19.4418C17.5092 19.4453 17.1198 19.2899 16.829 19.0091L10.2877 12.4678L9.19776 13.5578C8.90866 13.8468 8.5166 14.0091 8.1078 14.0091C7.69901 14.0091 7.30695 13.8468 7.01785 13.5578Z" fill="#383838"/>
<path fill-rule="evenodd" clip-rule="evenodd" d="M42.9911 42.9912C43.2802 42.7022 43.6723 42.5398 44.0811 42.5398C44.4898 42.5398 44.8819 42.7022 45.171 42.9912L51.7123 49.5325L52.8023 48.4425C52.9445 48.2953 53.1146 48.1778 53.3027 48.097C53.4908 48.0162 53.6931 47.9737 53.8978 47.9719C54.1025 47.9701 54.3055 48.0091 54.4949 48.0867C54.6844 48.1642 54.8565 48.2786 55.0013 48.4234C55.146 48.5682 55.2605 48.7403 55.338 48.9297C55.4155 49.1192 55.4546 49.3222 55.4528 49.5269C55.451 49.7316 55.4085 49.9339 55.3277 50.122C55.2469 50.3101 55.1294 50.4802 54.9822 50.6224L50.6223 54.9823C50.3316 55.2631 49.9421 55.4185 49.5379 55.415C49.1337 55.4115 48.747 55.2493 48.4612 54.9635C48.1754 54.6776 48.0132 54.291 48.0097 53.8868C48.0062 53.4825 48.1616 53.0931 48.4424 52.8023L49.5324 51.7124L42.9911 45.1726C42.8478 45.0295 42.734 44.8594 42.6565 44.6723C42.5789 44.4851 42.5389 44.2845 42.5389 44.0819C42.5389 43.8793 42.5789 43.6787 42.6565 43.4915C42.734 43.3044 42.8478 43.1344 42.9911 42.9912Z" fill="#383838"/>
<path fill-rule="evenodd" clip-rule="evenodd" d="M1.70834 35.625C1.29946 35.625 0.907334 35.4626 0.618216 35.1735C0.329097 34.8843 0.166672 34.4922 0.166672 34.0833V27.9167C0.166672 27.5078 0.329097 27.1157 0.618216 26.8265C0.907334 26.5374 1.29946 26.375 1.70834 26.375C2.11721 26.375 2.50934 26.5374 2.79846 26.8265C3.08758 27.1157 3.25001 27.5078 3.25001 27.9167V29.4583H12.5C12.9089 29.4583 13.301 29.6208 13.5901 29.9099C13.8792 30.199 14.0417 30.5911 14.0417 31C14.0417 31.4089 13.8792 31.801 13.5901 32.0901C13.301 32.3792 12.9089 32.5417 12.5 32.5417H3.25001V34.0833C3.25001 34.4922 3.08758 34.8843 2.79846 35.1735C2.50934 35.4626 2.11721 35.625 1.70834 35.625Z" fill="#383838"/>
<path fill-rule="evenodd" clip-rule="evenodd" d="M47.9583 31C47.9583 30.5911 48.1208 30.199 48.4099 29.9099C48.699 29.6208 49.0911 29.4583 49.5 29.4583H58.75V27.9167C58.75 27.5078 58.9124 27.1157 59.2016 26.8265C59.4907 26.5374 59.8828 26.375 60.2917 26.375C60.7006 26.375 61.0927 26.5374 61.3818 26.8265C61.6709 27.1157 61.8333 27.5078 61.8333 27.9167V34.0833C61.8333 34.4922 61.6709 34.8843 61.3818 35.1735C61.0927 35.4626 60.7006 35.625 60.2917 35.625C59.8828 35.625 59.4907 35.4626 59.2016 35.1735C58.9124 34.8843 58.75 34.4922 58.75 34.0833V32.5417H49.5C49.0911 32.5417 48.699 32.3792 48.4099 32.0901C48.1208 31.801 47.9583 31.4089 47.9583 31Z" fill="#383838"/>
</svg>
