<svg width="46" height="44" viewBox="0 0 46 44" fill="none" xmlns="http://www.w3.org/2000/svg">
<path d="M33.5 0.25C26.745 0.25 21.25 5.74675 21.25 12.5C21.25 19.2533 26.745 24.75 33.5 24.75C40.255 24.75 45.75 19.2533 45.75 12.5C45.75 5.74675 40.255 0.25 33.5 0.25ZM33.5 3.75C38.3247 3.75 42.25 7.67525 42.25 12.5C42.25 14.2797 41.7075 15.9317 40.7905 17.316L28.684 5.2095C30.1102 4.25849 31.7858 3.75068 33.5 3.75ZM26.2095 7.684L38.316 19.794C36.8894 20.7437 35.2138 21.2502 33.5 21.25C28.6753 21.25 24.75 17.3247 24.75 12.5C24.75 10.7203 25.2925 9.06825 26.2095 7.684ZM12.5 19.5C5.745 19.5 0.25 24.9967 0.25 31.75C0.25 38.5033 5.745 44 12.5 44C19.255 44 24.75 38.5033 24.75 31.75C24.75 24.9967 19.255 19.5 12.5 19.5ZM12.5 23C14.5158 23.003 16.469 23.7009 18.0304 24.976C19.5917 26.2511 20.6658 28.0254 21.0715 30H3.9285C4.7405 26.01 8.2755 23 12.5 23ZM3.9285 33.5H21.0715C20.6658 35.4746 19.5917 37.2489 18.0304 38.524C16.469 39.7991 14.5158 40.497 12.5 40.5C10.4842 40.497 8.53098 39.7991 6.96963 38.524C5.40829 37.2489 4.33424 35.4746 3.9285 33.5Z" fill="white"/>
</svg>
