<svg width="57" height="71" viewBox="0 0 57 71" fill="none" xmlns="http://www.w3.org/2000/svg">
<g filter="url(#filter0_d_12_147)">
<path fill-rule="evenodd" clip-rule="evenodd" d="M28.5 13.25C29.7763 13.25 31.0004 12.7429 31.9029 11.8404C32.8054 10.9379 33.3125 9.71381 33.3125 8.43746C33.3125 7.1611 32.8054 5.93703 31.9029 5.03451C31.0004 4.13199 29.7763 3.62496 28.5 3.62496C27.2236 3.62496 25.9995 4.13199 25.097 5.03451C24.1945 5.93703 23.6875 7.1611 23.6875 8.43746C23.6875 9.71381 24.1945 10.9379 25.097 11.8404C25.9995 12.7429 27.2236 13.25 28.5 13.25ZM28.5 16.4583C30.6272 16.4583 32.6673 15.6132 34.1715 14.109C35.6757 12.6048 36.5208 10.5647 36.5208 8.43746C36.5208 6.3102 35.6757 4.27007 34.1715 2.76587C32.6673 1.26168 30.6272 0.416626 28.5 0.416626C26.3727 0.416626 24.3326 1.26168 22.8284 2.76587C21.3242 4.27007 20.4791 6.3102 20.4791 8.43746C20.4791 10.5647 21.3242 12.6048 22.8284 14.109C24.3326 15.6132 26.3727 16.4583 28.5 16.4583Z" fill="#383838"/>
<path fill-rule="evenodd" clip-rule="evenodd" d="M17.8708 23.3786C18.6047 23.5184 19.2669 23.9099 19.7431 24.4856C20.2193 25.0614 20.4796 25.7853 20.4791 26.5324V59.7708C20.4791 60.1962 20.6481 60.6042 20.949 60.9051C21.2498 61.2059 21.6579 61.3749 22.0833 61.3749H22.2229C22.6233 61.375 23.0093 61.2252 23.305 60.9551C23.6007 60.6849 23.7846 60.314 23.8206 59.9151L25.2916 43.7291C25.2916 42.8782 25.6297 42.0621 26.2313 41.4605C26.833 40.8588 27.6491 40.5208 28.5 40.5208C29.3509 40.5208 30.1669 40.8588 30.7686 41.4605C31.3703 42.0621 31.7083 42.8782 31.7083 43.7291L33.1793 59.9151C33.2154 60.314 33.3993 60.6849 33.6949 60.9551C33.9906 61.2252 34.3766 61.375 34.7771 61.3749H34.9166C35.3421 61.3749 35.7501 61.2059 36.051 60.9051C36.3518 60.6042 36.5208 60.1962 36.5208 59.7708V26.5918C36.5207 25.8449 36.7812 25.1214 37.2573 24.546C37.7335 23.9705 38.3955 23.5793 39.1292 23.4396C41.9461 22.9038 44.925 22.1611 48.1991 21.2066C48.4014 21.1476 48.59 21.0494 48.7543 20.9175C48.9185 20.7856 49.0552 20.6227 49.1565 20.4379C49.2578 20.2532 49.3217 20.0504 49.3446 19.841C49.3675 19.6315 49.349 19.4197 49.29 19.2174C49.231 19.0152 49.1327 18.8266 49.0009 18.6623C48.869 18.498 48.706 18.3613 48.5213 18.2601C48.3366 18.1588 48.1337 18.0948 47.9243 18.0719C47.7149 18.049 47.503 18.0676 47.3008 18.1266C39.8671 20.2922 34.1627 21.2964 28.5064 21.2708C22.8437 21.2451 17.1328 20.1896 9.67828 18.1218C9.47389 18.0608 9.25939 18.0413 9.04734 18.0642C8.83528 18.0871 8.62994 18.1521 8.4433 18.2554C8.25667 18.3587 8.09251 18.4981 7.96041 18.6655C7.82831 18.833 7.73094 19.0251 7.67398 19.2307C7.61702 19.4362 7.60162 19.6511 7.62868 19.8626C7.65575 20.0742 7.72473 20.2782 7.8316 20.4628C7.93846 20.6474 8.08107 20.8088 8.25107 20.9376C8.42106 21.0665 8.61504 21.1601 8.82166 21.213C12.0829 22.1178 15.0555 22.8429 17.8708 23.3786ZM26.8605 61.0589C26.5789 62.0725 25.973 62.9659 25.1354 63.6024C24.2979 64.2389 23.2748 64.5834 22.2229 64.5833H22.0833C20.8069 64.5833 19.5829 64.0762 18.6804 63.1737C17.7778 62.2712 17.2708 61.0471 17.2708 59.7708V26.5324C14.3416 25.9742 11.2792 25.2234 7.96343 24.3026C7.34178 24.1453 6.75785 23.8654 6.24592 23.4792C5.734 23.0931 5.3044 22.6085 4.98238 22.054C4.66036 21.4995 4.45241 20.8862 4.37074 20.2502C4.28907 19.6141 4.33532 18.9682 4.50679 18.3503C4.67826 17.7324 4.97148 17.1551 5.36924 16.6521C5.76699 16.1491 6.26124 15.7307 6.82297 15.4214C7.3847 15.1122 8.00257 14.9183 8.64029 14.8511C9.278 14.784 9.9227 14.845 10.5365 15.0306C17.8676 17.063 23.2656 18.0384 28.5208 18.0624C33.76 18.0849 39.1372 17.1641 46.4041 15.0466C47.0137 14.86 47.6542 14.7963 48.2886 14.8593C48.923 14.9223 49.5386 15.1107 50.0996 15.4136C50.6605 15.7165 51.1557 16.1278 51.5564 16.6237C51.9571 17.1196 52.2552 17.6901 52.4335 18.3022C52.6118 18.9143 52.6667 19.5557 52.5951 20.1892C52.5234 20.8226 52.3266 21.4356 52.0161 21.9923C51.7056 22.5491 51.2875 23.0386 50.7862 23.4325C50.2849 23.8263 49.7103 24.1167 49.0959 24.2866C45.7528 25.2619 42.6712 26.0319 39.7291 26.5918V59.7708C39.7291 61.0471 39.2221 62.2712 38.3196 63.1737C37.4171 64.0762 36.193 64.5833 34.9166 64.5833H34.7771C33.5762 64.5834 32.4186 64.1345 31.5317 63.3248C30.6448 62.5151 30.0927 61.4031 29.9838 60.2071L28.5128 44.0211C28.5044 43.9266 28.5001 43.8319 28.5 43.7371C28.5 43.8318 28.4952 43.9248 28.4871 44.0195L27.0145 60.2055C26.9885 60.494 26.937 60.7796 26.8605 61.0589Z" fill="#383838"/>
</g>
<defs>
<filter id="filter0_d_12_147" x="0.331543" y="0.416626" width="56.2941" height="72.1666" filterUnits="userSpaceOnUse" color-interpolation-filters="sRGB">
<feFlood flood-opacity="0" result="BackgroundImageFix"/>
<feColorMatrix in="SourceAlpha" type="matrix" values="0 0 0 0 0 0 0 0 0 0 0 0 0 0 0 0 0 0 127 0" result="hardAlpha"/>
<feOffset dy="4"/>
<feGaussianBlur stdDeviation="2"/>
<feComposite in2="hardAlpha" operator="out"/>
<feColorMatrix type="matrix" values="0 0 0 0 0 0 0 0 0 0 0 0 0 0 0 0 0 0 0.25 0"/>
<feBlend mode="normal" in2="BackgroundImageFix" result="effect1_dropShadow_12_147"/>
<feBlend mode="normal" in="SourceGraphic" in2="effect1_dropShadow_12_147" result="shape"/>
</filter>
</defs>
</svg>
