<svg width="38" height="52" viewBox="0 0 38 52" fill="none" xmlns="http://www.w3.org/2000/svg">
<path fill-rule="evenodd" clip-rule="evenodd" d="M4.79167 6.62502C4.4491 6.62502 4.12055 6.76111 3.87832 7.00334C3.63609 7.24558 3.5 7.57412 3.5 7.91669V47.9584C3.5 48.3009 3.63609 48.6295 3.87832 48.8717C4.12055 49.1139 4.4491 49.25 4.79167 49.25H33.2083C33.5509 49.25 33.8794 49.1139 34.1217 48.8717C34.3639 48.6295 34.5 48.3009 34.5 47.9584V7.91669C34.5 7.57412 34.3639 7.24558 34.1217 7.00334C33.8794 6.76111 33.5509 6.62502 33.2083 6.62502H25.997V4.04169H33.2083C34.2361 4.04169 35.2217 4.44994 35.9484 5.17665C36.6751 5.90335 37.0833 6.88897 37.0833 7.91669V47.9584C37.0833 48.9861 36.6751 49.9717 35.9484 50.6984C35.2217 51.4251 34.2361 51.8334 33.2083 51.8334H4.79167C3.76395 51.8334 2.77833 51.4251 2.05163 50.6984C1.32492 49.9717 0.916666 48.9861 0.916666 47.9584V7.91669C0.916666 6.88897 1.32492 5.90335 2.05163 5.17665C2.77833 4.44994 3.76395 4.04169 4.79167 4.04169H12.003V6.62502H4.79167Z" fill="white"/>
<path fill-rule="evenodd" clip-rule="evenodd" d="M9.95833 4.04169C9.95833 3.01397 10.3666 2.02835 11.0933 1.30165C11.82 0.574945 12.8056 0.166687 13.8333 0.166687H24.1667C25.1944 0.166687 26.18 0.574945 26.9067 1.30165C27.6334 2.02835 28.0417 3.01397 28.0417 4.04169V6.62502C28.0417 7.65273 27.6334 8.63836 26.9067 9.36506C26.18 10.0918 25.1944 10.5 24.1667 10.5H13.8333C12.8056 10.5 11.82 10.0918 11.0933 9.36506C10.3666 8.63836 9.95833 7.65273 9.95833 6.62502V4.04169ZM13.8333 2.75002C13.4908 2.75002 13.1622 2.88611 12.92 3.12834C12.6778 3.37058 12.5417 3.69912 12.5417 4.04169V6.62502C12.5417 6.96759 12.6778 7.29613 12.92 7.53837C13.1622 7.7806 13.4908 7.91669 13.8333 7.91669H24.1667C24.5092 7.91669 24.8378 7.7806 25.08 7.53837C25.3222 7.29613 25.4583 6.96759 25.4583 6.62502V4.04169C25.4583 3.69912 25.3222 3.37058 25.08 3.12834C24.8378 2.88611 24.5092 2.75002 24.1667 2.75002H13.8333Z" fill="white"/>
<path fill-rule="evenodd" clip-rule="evenodd" d="M7.375 22.125C7.375 21.7825 7.51109 21.4539 7.75332 21.2117C7.99556 20.9695 8.3241 20.8334 8.66667 20.8334H17.7083C18.0509 20.8334 18.3794 20.9695 18.6217 21.2117C18.8639 21.4539 19 21.7825 19 22.125C19 22.4676 18.8639 22.7962 18.6217 23.0384C18.3794 23.2806 18.0509 23.4167 17.7083 23.4167H8.66667C8.3241 23.4167 7.99556 23.2806 7.75332 23.0384C7.51109 22.7962 7.375 22.4676 7.375 22.125Z" fill="white"/>
<path fill-rule="evenodd" clip-rule="evenodd" d="M7.375 15.6667C7.375 15.3241 7.51109 14.9956 7.75332 14.7533C7.99556 14.5111 8.3241 14.375 8.66667 14.375H28.6875C29.0301 14.375 29.3586 14.5111 29.6008 14.7533C29.8431 14.9956 29.9792 15.3241 29.9792 15.6667C29.9792 16.0092 29.8431 16.3378 29.6008 16.58C29.3586 16.8222 29.0301 16.9583 28.6875 16.9583H8.66667C8.3241 16.9583 7.99556 16.8222 7.75332 16.58C7.51109 16.3378 7.375 16.0092 7.375 15.6667Z" fill="white"/>
<path fill-rule="evenodd" clip-rule="evenodd" d="M9.95833 32.4583V35.0417H12.5417V32.4583H9.95833ZM8.66667 29.875C8.3241 29.875 7.99556 30.0111 7.75332 30.2533C7.51109 30.4956 7.375 30.8241 7.375 31.1667V36.3333C7.375 36.6759 7.51109 37.0044 7.75332 37.2467C7.99556 37.4889 8.3241 37.625 8.66667 37.625H13.8333C14.1759 37.625 14.5044 37.4889 14.7467 37.2467C14.9889 37.0044 15.125 36.6759 15.125 36.3333V31.1667C15.125 30.8241 14.9889 30.4956 14.7467 30.2533C14.5044 30.0111 14.1759 29.875 13.8333 29.875H8.66667Z" fill="white"/>
<path fill-rule="evenodd" clip-rule="evenodd" d="M24.1667 32.4584C24.341 32.4663 24.5151 32.4389 24.6785 32.3777C24.8419 32.3166 24.9912 32.2229 25.1175 32.1025C25.2437 31.982 25.3442 31.8372 25.4129 31.6768C25.4817 31.5165 25.5172 31.3438 25.5174 31.1693C25.5175 30.9948 25.4824 30.8221 25.4139 30.6616C25.3455 30.5011 25.2453 30.3561 25.1193 30.2354C24.9933 30.1147 24.8442 30.0207 24.6809 29.9592C24.5176 29.8978 24.3436 29.87 24.1692 29.8776C23.837 29.8921 23.5231 30.0343 23.2931 30.2744C23.063 30.5145 22.9344 30.8342 22.934 31.1667C22.9337 31.4993 23.0617 31.8192 23.2913 32.0598C23.5209 32.3004 23.8344 32.4432 24.1667 32.4584ZM24.1667 35.0417C25.1944 35.0417 26.18 34.6334 26.9067 33.9067C27.6334 33.18 28.0417 32.1944 28.0417 31.1667C28.0417 30.139 27.6334 29.1534 26.9067 28.4266C26.18 27.6999 25.1944 27.2917 24.1667 27.2917C23.139 27.2917 22.1533 27.6999 21.4266 28.4266C20.6999 29.1534 20.2917 30.139 20.2917 31.1667C20.2917 32.1944 20.6999 33.18 21.4266 33.9067C22.1533 34.6334 23.139 35.0417 24.1667 35.0417Z" fill="white"/>
<path fill-rule="evenodd" clip-rule="evenodd" d="M19 40.57C19.0226 40.5436 19.0463 40.5182 19.071 40.4938C19.2829 40.2872 19.691 40.0133 20.3317 39.7408C21.6234 39.1918 23.2173 38.9167 24.1667 38.9167C25.116 38.9167 26.71 39.1918 28.0016 39.7408C28.6423 40.012 29.0505 40.2872 29.2623 40.4938C29.287 40.5178 29.3107 40.5428 29.3333 40.5687V42.7917H19V40.57ZM24.1667 36.3334C21.5795 36.3334 16.4167 37.7103 16.4167 40.4435V45.375H31.9167V40.4435C31.9167 37.7103 26.7539 36.3334 24.1667 36.3334Z" fill="white"/>
</svg>
