<svg width="33" height="33" viewBox="0 0 33 33" fill="none" xmlns="http://www.w3.org/2000/svg">
<path d="M22.4861 15.6109C22.6113 15.4813 22.6806 15.3076 22.679 15.1273C22.6775 14.9471 22.6052 14.7746 22.4777 14.6472C22.3502 14.5197 22.1778 14.4474 21.9975 14.4458C21.8173 14.4443 21.6436 14.5136 21.5139 14.6388L16.5 19.6527L14.2361 17.3888C14.1064 17.2636 13.9327 17.1943 13.7525 17.1958C13.5722 17.1974 13.3998 17.2697 13.2723 17.3972C13.1448 17.5246 13.0725 17.6971 13.071 17.8773C13.0694 18.0576 13.1387 18.2313 13.2639 18.3609L16.5 21.597L22.4861 15.6109Z" fill="#2D9384"/>
<path fill-rule="evenodd" clip-rule="evenodd" d="M26.125 10.3125V24.75C26.125 25.297 25.9077 25.8216 25.5209 26.2084C25.1341 26.5952 24.6095 26.8125 24.0625 26.8125H11.6875C11.1405 26.8125 10.6159 26.5952 10.2291 26.2084C9.8423 25.8216 9.625 25.297 9.625 24.75V5.5C9.625 4.95299 9.8423 4.42839 10.2291 4.04159C10.6159 3.6548 11.1405 3.4375 11.6875 3.4375H19.25L26.125 10.3125ZM19.25 11C19.0677 11 18.8928 10.9276 18.7639 10.7986C18.6349 10.6697 18.5625 10.4948 18.5625 10.3125V4.8125H11.6875C11.5052 4.8125 11.3303 4.88493 11.2014 5.01386C11.0724 5.1428 11 5.31766 11 5.5V24.75C11 24.9323 11.0724 25.1072 11.2014 25.2361C11.3303 25.3651 11.5052 25.4375 11.6875 25.4375H24.0625C24.2448 25.4375 24.4197 25.3651 24.5486 25.2361C24.6776 25.1072 24.75 24.9323 24.75 24.75V11H19.25ZM19.9375 6.06925L23.4933 9.625H19.9375V6.06925Z" fill="#2D9384"/>
<path d="M8.25 7.5625V26.125C8.25 26.672 8.4673 27.1966 8.85409 27.5834C9.24089 27.9702 9.76549 28.1875 10.3125 28.1875H23.375V29.5625H10.3125C9.40082 29.5625 8.52648 29.2003 7.88182 28.5557C7.23716 27.911 6.875 27.0367 6.875 26.125V7.5625H8.25Z" fill="#2D9384"/>
</svg>
