<svg width="49" height="49" viewBox="0 0 49 49" fill="none" xmlns="http://www.w3.org/2000/svg">
<path d="M3.0625 33.6875H45.9375V36.75H3.0625V33.6875Z" fill="#383838"/>
<path d="M3.0625 39.8125H45.9375V42.875H3.0625V39.8125Z" fill="#383838"/>
<path d="M36.75 15.3125C36.1443 15.3125 35.5522 15.4921 35.0486 15.8286C34.5449 16.1651 34.1524 16.6434 33.9206 17.203C33.6888 17.7626 33.6282 18.3784 33.7463 18.9725C33.8645 19.5665 34.1562 20.1122 34.5845 20.5405C35.0128 20.9688 35.5585 21.2605 36.1525 21.3787C36.7466 21.4968 37.3624 21.4362 37.922 21.2044C38.4816 20.9726 38.9599 20.5801 39.2964 20.0764C39.6329 19.5728 39.8125 18.9807 39.8125 18.375C39.8125 17.5628 39.4898 16.7838 38.9155 16.2095C38.3412 15.6352 37.5622 15.3125 36.75 15.3125Z" fill="#383838"/>
<path d="M24.5 24.5C23.2886 24.5 22.1044 24.1408 21.0971 23.4678C20.0899 22.7947 19.3048 21.8381 18.8412 20.7189C18.3777 19.5997 18.2564 18.3682 18.4927 17.1801C18.729 15.9919 19.3124 14.9006 20.169 14.044C21.0256 13.1874 22.1169 12.604 23.3051 12.3677C24.4932 12.1314 25.7247 12.2527 26.8439 12.7162C27.9631 13.1798 28.9197 13.9649 29.5928 14.9721C30.2658 15.9794 30.625 17.1636 30.625 18.375C30.623 19.9988 29.977 21.5556 28.8288 22.7038C27.6806 23.852 26.1238 24.498 24.5 24.5ZM24.5 15.3125C23.8943 15.3125 23.3022 15.4921 22.7986 15.8286C22.2949 16.1651 21.9024 16.6434 21.6706 17.203C21.4388 17.7626 21.3782 18.3784 21.4963 18.9725C21.6145 19.5665 21.9062 20.1122 22.3345 20.5405C22.7628 20.9688 23.3085 21.2605 23.9025 21.3787C24.4966 21.4968 25.1124 21.4362 25.672 21.2044C26.2316 20.9726 26.7099 20.5801 27.0464 20.0764C27.3829 19.5728 27.5625 18.9807 27.5625 18.375C27.5617 17.563 27.2388 16.7845 26.6646 16.2104C26.0905 15.6362 25.312 15.3133 24.5 15.3125Z" fill="#383838"/>
<path d="M12.25 15.3125C11.6443 15.3125 11.0522 15.4921 10.5486 15.8286C10.0449 16.1651 9.65241 16.6434 9.42062 17.203C9.18883 17.7626 9.12818 18.3784 9.24635 18.9725C9.36451 19.5665 9.65619 20.1122 10.0845 20.5405C10.5128 20.9688 11.0585 21.2605 11.6525 21.3787C12.2466 21.4968 12.8624 21.4362 13.422 21.2044C13.9816 20.9726 14.4599 20.5801 14.7964 20.0764C15.1329 19.5728 15.3125 18.9807 15.3125 18.375C15.3125 17.5628 14.9898 16.7838 14.4155 16.2095C13.8412 15.6352 13.0622 15.3125 12.25 15.3125Z" fill="#383838"/>
<path d="M42.875 30.625H6.125C5.3134 30.623 4.53561 30.2997 3.96172 29.7258C3.38783 29.1519 3.06452 28.3741 3.0625 27.5625V9.1875C3.06452 8.3759 3.38783 7.59811 3.96172 7.02422C4.53561 6.45033 5.3134 6.12702 6.125 6.125H42.875C43.6866 6.12702 44.4644 6.45033 45.0383 7.02422C45.6122 7.59811 45.9355 8.3759 45.9375 9.1875V27.5625C45.9363 28.3744 45.6132 29.1526 45.0392 29.7267C44.4651 30.3007 43.6869 30.6238 42.875 30.625ZM42.875 9.1875H6.125V27.5625H42.875V9.1875Z" fill="#383838"/>
</svg>
