<svg width="64" height="64" viewBox="0 0 64 64" fill="none" xmlns="http://www.w3.org/2000/svg">
<path d="M44.115 10C36 10 32 18 32 18C32 18 28 10 19.885 10C13.29 10 8.0675 15.5175 8 22.1012C7.8625 35.7675 18.8412 45.4863 30.875 53.6538C31.2068 53.8795 31.5987 54.0002 32 54.0002C32.4013 54.0002 32.7932 53.8795 33.125 53.6538C45.1575 45.4863 56.1362 35.7675 56 22.1012C55.9325 15.5175 50.71 10 44.115 10V10Z" stroke="#2A695D" stroke-width="3" stroke-linecap="round" stroke-linejoin="round"/>
<path d="M6 32H20L26 20L32 40L38 28L42 36H58" stroke="#2A695D" stroke-width="3" stroke-linecap="round" stroke-linejoin="round"/>
</svg>
