<svg width="32" height="32" viewBox="0 0 32 32" fill="none" xmlns="http://www.w3.org/2000/svg">
<path d="M23.2 16.0001C25.1096 16.0001 26.9409 15.2415 28.2912 13.8913C29.6414 12.541 30.4 10.7097 30.4 8.8001C30.4 6.89054 29.6414 5.05919 28.2912 3.70893C26.9409 2.35867 25.1096 1.6001 23.2 1.6001C21.2904 1.6001 19.4591 2.35867 18.1088 3.70893C16.7586 5.05919 16 6.89054 16 8.8001C16 10.7097 16.7586 12.541 18.1088 13.8913C19.4591 15.2415 21.2904 16.0001 23.2 16.0001ZM26.9664 6.9665L22.1664 11.7665C22.0921 11.841 22.0038 11.9001 21.9066 11.9404C21.8094 11.9808 21.7052 12.0015 21.6 12.0015C21.4948 12.0015 21.3906 11.9808 21.2934 11.9404C21.1962 11.9001 21.1079 11.841 21.0336 11.7665L19.4336 10.1665C19.2834 10.0163 19.199 9.81254 19.199 9.6001C19.199 9.38766 19.2834 9.18392 19.4336 9.0337C19.5838 8.88348 19.7876 8.79909 20 8.79909C20.2124 8.79909 20.4162 8.88348 20.5664 9.0337L21.6 10.0689L25.8336 5.8337C25.9838 5.68348 26.1876 5.59909 26.4 5.59909C26.6124 5.59909 26.8162 5.68348 26.9664 5.8337C27.1166 5.98392 27.201 6.18766 27.201 6.4001C27.201 6.61254 27.1166 6.81628 26.9664 6.9665ZM23.752 17.5825C23.1727 17.6181 22.5914 17.5978 22.016 17.5217L16.8 26.4177V17.3857C17.105 17.2096 17.3434 16.9378 17.4782 16.6123C17.613 16.2869 17.6366 15.9262 17.5455 15.5859C17.4543 15.2457 17.2534 14.9451 16.974 14.7307C16.6946 14.5163 16.3522 14.4001 16 14.4001C15.6478 14.4001 15.3054 14.5163 15.026 14.7307C14.7466 14.9451 14.5457 15.2457 14.4545 15.5859C14.3634 15.9262 14.387 16.2869 14.5218 16.6123C14.6566 16.9378 14.895 17.2096 15.2 17.3857V26.4177L9.9456 17.4561C9.74796 17.119 9.63562 16.7388 9.61833 16.3484C9.60104 15.958 9.67933 15.5693 9.8464 15.2161L12.5056 9.6001H14.4352C14.3872 9.06784 14.3872 8.53235 14.4352 8.0001H10.4C10.1878 8.0001 9.98434 7.91581 9.83431 7.76578C9.68429 7.61575 9.6 7.41227 9.6 7.2001V4.0001C9.6 3.78792 9.51571 3.58444 9.36569 3.43441C9.21566 3.28438 9.01217 3.2001 8.8 3.2001C8.58783 3.2001 8.38434 3.28438 8.23431 3.43441C8.08429 3.58444 8 3.78792 8 4.0001V7.2001C8 7.83662 8.25286 8.44707 8.70294 8.89715C9.15303 9.34724 9.76348 9.6001 10.4 9.6001H10.736L8.4 14.5281C8.12102 15.1171 7.9902 15.7654 8.01892 16.4165C8.04764 17.0677 8.23504 17.7019 8.5648 18.2641L14.1056 27.7153C14.2995 28.0455 14.5763 28.3193 14.9086 28.5095C15.2409 28.6997 15.6171 28.7998 16 28.7998C16.3829 28.7998 16.7591 28.6997 17.0914 28.5095C17.4237 28.3193 17.7005 28.0455 17.8944 27.7153L23.4352 18.2641C23.5632 18.0449 23.6688 17.8161 23.752 17.5825Z" fill="#2D9384"/>
</svg>
