<svg width="42" height="38" viewBox="0 0 42 38" fill="none" xmlns="http://www.w3.org/2000/svg">
<path d="M16.8333 17C21.4375 17 25.1667 13.2708 25.1667 8.66665C25.1667 4.06248 21.4375 0.333313 16.8333 0.333313C12.2292 0.333313 8.5 4.06248 8.5 8.66665C8.5 13.2708 12.2292 17 16.8333 17ZM16.8333 4.49998C19.125 4.49998 21 6.37498 21 8.66665C21 10.9583 19.125 12.8333 16.8333 12.8333C14.5417 12.8333 12.6667 10.9583 12.6667 8.66665C12.6667 6.37498 14.5417 4.49998 16.8333 4.49998ZM4.33333 29.5C4.79167 28 11.2292 25.3333 16.8333 25.3333C16.8333 23.875 17.1042 22.4791 17.5625 21.1875C11.875 20.9791 0.166667 23.8125 0.166667 29.5V33.6666H20.0417C18.9583 32.4583 18.1042 31.0625 17.5625 29.5H4.33333ZM36.4792 29.5416C37.2292 28.3125 37.6667 26.875 37.6667 25.3333C37.6667 20.7291 33.9375 17 29.3333 17C24.7292 17 21 20.7291 21 25.3333C21 29.9375 24.7292 33.6666 29.3333 33.6666C30.875 33.6666 32.3125 33.2083 33.5417 32.4791L38.8958 37.8333L41.8333 34.8958C38.7083 31.7708 40.1875 33.2291 36.4792 29.5416ZM29.3333 29.5C27.0417 29.5 25.1667 27.625 25.1667 25.3333C25.1667 23.0416 27.0417 21.1666 29.3333 21.1666C31.625 21.1666 33.5 23.0416 33.5 25.3333C33.5 27.625 31.625 29.5 29.3333 29.5Z" fill="white"/>
</svg>
