<svg width="60" height="60" viewBox="0 0 60 60" fill="none" xmlns="http://www.w3.org/2000/svg">
<path d="M14.6783 27.055C13.54 26.325 12.7067 25.1466 12.905 23.9166C12.9246 23.795 12.971 23.6792 13.0407 23.5776C13.1105 23.476 13.2019 23.3912 13.3084 23.3292C13.4148 23.2672 13.5337 23.2295 13.6565 23.219C13.7793 23.2085 13.9029 23.2253 14.0183 23.2683C17.0483 24.3933 20.4283 23.695 23.4217 20.855C23.5232 20.7586 23.6474 20.6894 23.7827 20.6537C23.918 20.618 24.0602 20.6169 24.196 20.6506C24.3319 20.6843 24.457 20.7517 24.56 20.8466C24.6629 20.9414 24.7403 21.0607 24.785 21.1933C25.17 22.3416 24.825 23.89 23.985 25.1616C23.488 25.9128 22.8363 26.5491 22.0734 27.028C21.3105 27.5068 20.4542 27.8172 19.5617 27.9383C17.565 28.2333 15.8683 27.8166 14.6783 27.055Z" fill="#383838"/>
<path d="M44.59 27.055C45.7283 26.325 46.5633 25.1466 46.365 23.9166C46.3454 23.795 46.299 23.6792 46.2293 23.5776C46.1596 23.476 46.0681 23.3912 45.9617 23.3292C45.8552 23.2672 45.7363 23.2295 45.6135 23.219C45.4907 23.2085 45.3672 23.2253 45.2517 23.2683C42.2217 24.3933 38.8417 23.695 35.8483 20.855C35.7468 20.7586 35.6227 20.6894 35.4873 20.6537C35.352 20.618 35.2098 20.6169 35.074 20.6506C34.9381 20.6843 34.813 20.7517 34.71 20.8466C34.6071 20.9414 34.5297 21.0607 34.485 21.1933C34.0983 22.3416 34.445 23.89 35.285 25.1616C35.7818 25.9126 36.4333 26.5488 37.1959 27.0276C37.9584 27.5065 38.8145 27.817 39.7067 27.9383C41.705 28.2333 43.4 27.8166 44.59 27.055Z" fill="#383838"/>
<path fill-rule="evenodd" clip-rule="evenodd" d="M45.43 41.6666C42.5633 35.73 36.73 31.6666 30 31.6666C23.27 31.6666 17.4366 35.73 14.57 41.6666C13.7883 43.2833 15.0966 45 16.8933 45H43.1066C44.9033 45 46.2116 43.2833 45.43 41.6666ZM30 35C34.7833 35 39.0883 37.5916 41.63 41.6666H18.37C20.9133 37.5916 25.2166 35 30 35Z" fill="#383838"/>
<path fill-rule="evenodd" clip-rule="evenodd" d="M60 30C60 46.5683 46.5683 60 30 60C13.4317 60 0 46.5683 0 30C0 13.4317 13.4317 0 30 0C46.5683 0 60 13.4317 60 30ZM56.6667 30C56.6667 44.7283 44.7283 56.6667 30 56.6667C15.2717 56.6667 3.33333 44.7283 3.33333 30C3.33333 15.2717 15.2717 3.33333 30 3.33333C44.7283 3.33333 56.6667 15.2717 56.6667 30Z" fill="#383838"/>
</svg>
