<svg width="45" height="52" viewBox="0 0 45 52" fill="none" xmlns="http://www.w3.org/2000/svg">
<path d="M43.4829 21.3022C42.3225 18.328 40.4739 16.0242 38.1323 14.6217C37.5922 15.66 36.9478 16.6405 36.2091 17.5483C36.2133 17.5507 36.2176 17.5528 36.2217 17.5552C39.7087 19.5593 41.7367 24.6807 41.1535 30.0098C40.1874 38.8387 37.5059 44.8895 33.6027 47.0477C31.0652 48.4507 27.9007 48.2508 24.1965 46.4545L23.8347 46.2795H21.1671L20.8054 46.4545C17.1012 48.2511 13.9367 48.4507 11.3992 47.0477C7.49611 44.8895 4.81478 38.8387 3.84834 30.0098C3.26515 24.6807 5.29329 19.5592 8.78017 17.5552C9.90336 16.9137 11.1771 16.5827 12.4705 16.5962C15.1111 16.5962 18.1543 17.8333 21.4611 20.2773L21.579 20.3648C21.579 20.3648 26.3459 19.7852 28.2344 18.9278C33.9242 16.3447 35.1797 12.2389 35.4024 11.6813C36.0587 10.0524 36.3867 8.30976 36.3675 6.55366C36.3484 4.79755 35.9824 3.06254 35.2907 1.44829L34.8452 0.33606L33.6477 0.348091C31.7539 0.368845 29.886 0.789937 28.1665 1.58372C26.4469 2.3775 24.9148 3.52601 23.6706 4.95385C22.4264 6.38169 21.4983 8.05656 20.9472 9.86849C20.3961 11.6804 20.2345 13.5884 20.473 15.4672C18.4058 14.3089 16.3957 13.5703 14.4701 13.2644C11.7419 12.8307 9.24075 13.2535 7.03607 14.5207C4.61473 15.9124 2.7069 18.2574 1.51898 21.3019C0.439011 24.0699 0.0306045 27.2975 0.369011 30.3903C1.47829 40.5273 4.70672 47.3464 9.70537 50.1106C11.3478 51.0219 13.1974 51.4944 15.0757 51.4825C17.2178 51.4825 19.5195 50.9144 21.9636 49.779H23.0387C27.6756 51.9329 31.798 52.0451 35.2965 50.1106C40.2949 47.3466 43.5238 40.5275 44.6331 30.3903C44.9713 27.2978 44.5629 24.0701 43.4829 21.3022ZM29.8771 4.65287C30.7042 4.29681 31.5761 4.05527 32.4685 3.93493C32.865 5.30596 32.9613 6.74633 32.7509 8.15794C32.5405 9.56954 32.0283 10.9192 31.2492 12.115C30.4702 13.3108 29.4425 14.3247 28.2363 15.0875C27.0301 15.8503 25.6736 16.3442 24.2593 16.5355C23.5879 14.2105 23.7882 11.7203 24.8225 9.53248C25.8569 7.34465 27.6542 5.60955 29.8771 4.65287Z" fill="white"/>
</svg>
